<svg xmlns="http://www.w3.org/2000/svg" viewBox="0 0 400 400"><g fill-rule="evenodd"><path fill="#89b14c" d="M187.2 109.969c-.77.404-2.004.865-2.743 1.024-.739.159-1.979.721-2.756 1.248-.777.528-1.568.959-1.757.959-.189 0-.344.36-.344.8 0 .491-.267.8-.69.8-.379 0-1.234.592-1.9 1.316-.665.724-1.715 1.635-2.331 2.024-.617.388-1.237 1.006-1.377 1.372-.223.581-1.152 1.559-2.98 3.139-.848.733-1.674 1.868-2.442 3.354-1.702 3.296-2.022 3.838-2.729 4.618-.41.453-1.211 2.155-1.78 3.782-.569 1.628-1.356 3.418-1.75 3.977-.393.56-.842 2.052-.997 3.315-.193 1.577-.519 2.464-1.041 2.83-.534.374-.837 1.235-1.022 2.902-.414 3.736-1.829 5.754-4.041 5.765-.741.003-1.428.27-1.631.633-.193.345-1.144.805-2.114 1.023-.97.218-2.038.645-2.375.95-.337.305-1.387.728-2.335.941-.947.213-2.072.703-2.5 1.091-.475.43-1.666.777-3.064.893-4.89.405-7.293 4.843-7.299 13.478-.001 1.101-.169 2.584-.373 3.296-.204.711-.573 3.41-.82 5.997-.246 2.587-.703 5.964-1.014 7.504-.312 1.54-.765 4.6-1.007 6.8-.243 2.2-.622 5.62-.843 7.6a374.69 374.69 0 0 0-.675 6.641c-.151 1.672-.479 3.292-.729 3.6-.493.606-.528.858-1.501 10.959-.36 3.74-.833 7.88-1.051 9.2-.218 1.32-.576 4.094-.796 6.163-.22 2.07-.598 4.002-.84 4.294-.616.742-1.098 5.421-1.516 14.743-.211 4.692-.562 8.444-.85 9.074-.927 2.025.728 3.353 4.591 3.685 1.748.15 3.928.604 4.844 1.009 1.108.491 3.189.831 6.222 1.017 2.506.154 6.25.625 8.32 1.047 2.07.423 4.415.768 5.211.768.796 0 1.848.281 2.339.625.516.361 2.45.782 4.589.999 4.578.465 8.837 1.268 16.897 3.187 1.76.419 5.509.949 8.33 1.177 2.822.229 5.501.615 5.954.857.889.476 7.731 1.731 12.916 2.37 1.76.217 5.45.833 8.2 1.369 2.75.535 6.326 1.168 7.947 1.406 1.62.237 3.266.603 3.657.812.391.209 2.665.568 5.053.798 2.389.23 5.153.512 6.143.628 1.108.129 3.107-.098 5.2-.59 8.81-2.07 9.939-2.353 10.324-2.591.227-.14 2.001-.602 3.944-1.027 4.839-1.06 11.448-2.667 13.026-3.17.719-.228 2.882-.704 4.807-1.057 1.926-.353 3.996-.9 4.6-1.215.605-.315 1.582-.574 2.173-.576.591-.001 1.562-.187 2.158-.414l1.084-.412-.271-3.858c-.149-2.121-.538-4.95-.865-6.287-.327-1.337-.764-4.051-.972-6.031-.208-1.98-.65-5.13-.982-7-.919-5.166-1.804-11.162-2.627-17.8-.409-3.3-.93-6.9-1.157-8-.228-1.1-.616-3.784-.863-5.965-.246-2.181-.617-4.409-.823-4.952-.207-.542-.641-3.255-.965-6.027-.324-2.772-.761-5.584-.97-6.248-.21-.664-.586-3.368-.836-6.008s-.796-6.42-1.214-8.4c-.417-1.98-.761-4.641-.765-5.913-.003-1.272-.261-2.923-.573-3.669-.311-.746-.863-4.205-1.225-7.687-.363-3.482-.821-6.871-1.02-7.531-.198-.66-.635-3.36-.971-6-.335-2.64-.966-6.78-1.401-9.2-.435-2.42-.797-5.065-.803-5.878-.025-2.831-1.199-3.585-5.829-3.742-9.148-.31-9.55-.402-11.894-2.715-1.15-1.136-2.721-2.616-3.491-3.29-.769-.674-2.257-2.159-3.305-3.301-2.369-2.581-4.051-3.383-5.531-2.64-.57.287-2.388.644-4.04.793l-3.003.272-1.255-1.749c-.689-.963-1.454-2.245-1.699-2.85-.244-.605-.605-1.1-.8-1.1-.196 0-.474-.732-.617-1.627-.183-1.148-.568-1.823-1.304-2.291-.575-.365-1.135-.778-1.245-.919-.11-.14-.605-.382-1.1-.536-.495-.155-.9-.551-.9-.881 0-2.323-3.914-4.713-8.698-5.311-3.423-.428-5.406-1.177-6.02-2.275-1.296-2.315-9.499-3.755-12.482-2.191m8 3.774c1.552.718 1.622 3.096.121 4.051-.617.392-1.611 1.184-2.209 1.759-1.722 1.656-2.523 2.289-3.249 2.567-.371.143-.848.714-1.059 1.27-.211.555-.557 1.01-.767 1.01-.211 0-.499.366-.641.813-.142.447-.694 1.283-1.227 1.858-.533.575-.969 1.283-.969 1.572 0 .289-.367.868-.815 1.285-.492.458-.948 1.598-1.149 2.872-.2 1.26-.597 2.258-.985 2.475-.358.201-.651.8-.651 1.331 0 .532-.262 1.558-.582 2.28-.32.723-.873 2.376-1.228 3.673-.779 2.843-2.375 4.641-4.12 4.641-.655 0-2.153.448-3.33.996s-2.595.998-3.151 1c-.556.002-1.319.364-1.696.804-.749.875-2.653 1.063-3.915.388-1.827-.978-2.427-4.385-.984-5.583.299-.248.668-1.206.819-2.128.343-2.084 2.082-5.862 2.83-6.149.306-.117.557-.709.557-1.315s.432-1.738.96-2.516 1.073-1.769 1.21-2.203c.138-.434.606-1.11 1.04-1.503.435-.393.79-.895.79-1.115 0-.22.424-.957.942-1.638.519-.681 1.071-1.643 1.227-2.138.157-.495.457-.9.668-.9.21 0 .556-.455.768-1.012.211-.557 1.175-1.502 2.141-2.1 1.217-.753 1.988-1.618 2.506-2.81.663-1.526.869-1.698 1.813-1.517.675.13 1.251-.018 1.571-.404.885-1.067 2.666-1.756 4.644-1.797 1.056-.022 2.37-.188 2.92-.369 1.17-.384 3.773-.108 5.2.552m16.327 6.457c.654.55 1.37 1 1.592 1 .221 0 .591.495.822 1.1.463 1.216 1.897 2.86 3.088 3.541.424.242.828.872.897 1.4.069.527.476 1.918.905 3.089 1.197 3.267-.7 5.253-5.031 5.27-.66.003-1.681.256-2.268.562-2.487 1.298-4.527-3.033-4.53-9.618-.002-3.344-.129-4.197-.723-4.855-1.79-1.983 3.034-3.352 5.248-1.489m-10.307.01c.852.441 1.18.902 1.18 1.662 0 .578.462 2.028 1.027 3.222.983 2.077 1.015 2.371.756 6.838-.347 5.999-1.079 7.325-4.328 7.845-.855.136-2.381.625-3.392 1.085-1.011.461-2.542.932-3.403 1.047-.86.116-2.624.724-3.919 1.351-3.913 1.895-6.507.601-5.344-2.666.313-.877.576-1.902.585-2.278.01-.377.354-1.007.765-1.4.411-.394.876-1.43 1.034-2.302.158-.873.612-1.814 1.008-2.091.396-.277.842-.993.992-1.59.15-.597.956-1.907 1.792-2.91.836-1.002 1.655-2.256 1.82-2.786.455-1.457 3.195-4.037 4.287-4.037.518 0 1.25-.36 1.627-.8.82-.957 1.915-1.016 3.513-.19m-.82 44.119c2.823.702 5.6 1.841 5.6 2.295 0 .112-.247.603-.548 1.09-.302.487-.756 2.207-1.01 3.822-.254 1.615-.728 3.575-1.054 4.354-.326.78-.707 2.699-.848 4.264-.148 1.648-.543 3.267-.939 3.846-.377.55-.813 1.54-.97 2.2-.734 3.085-3.055 3.719-7.233 1.973-.675-.282-2.989-.642-5.143-.8-12.571-.922-17.01 8.577-6.915 14.796.743.457 2.386 1.551 3.652 2.431 1.267.88 2.979 2.05 3.806 2.6 2.815 1.873 3.697 2.554 5.283 4.077.871.838 1.75 1.523 1.952 1.523.202 0 .367.261.367.579 0 .319.439 1.053.975 1.632s1.097 1.623 1.245 2.321c.148.697.527 1.561.843 1.919.528.601 2.224 4.79 2.893 7.149 1.1 3.874-1.174 18-2.897 18-.377 0-.62.649-.75 2.002-.216 2.248-5.561 9.198-7.074 9.198-.174 0-.881.54-1.572 1.2-.691.66-1.558 1.2-1.928 1.2-.37 0-.971.271-1.336.601-.366.331-1.73.788-3.032 1.016a94.337 94.337 0 0 0-4.967 1.047c-3.067.746-9.239.485-11.065-.467-.626-.327-2.194-.593-3.496-.595-1.651-.001-2.976-.29-4.4-.958-1.122-.526-3.029-1.084-4.239-1.24-2.216-.287-4-1.565-4-2.866 0-.296-.257-.538-.572-.538-.314 0-1.233-.625-2.043-1.388l-1.472-1.388.286-3.712c.164-2.122.513-3.97.816-4.313.292-.331.824-1.894 1.184-3.473.359-1.579.911-3.085 1.227-3.347.316-.263.574-.715.574-1.005 0-1.655 3.48-1.931 5.161-.41.386.35.888.636 1.115.636.227 0 1.022.405 1.768.901 5.51 3.659 14.555 3.68 15.078.035.068-.469.473-1.169.9-1.556 1.048-.948 1.035-2.82-.022-3.096-.44-.115-.8-.522-.8-.905 0-.803-2.674-5.015-3.501-5.515-.305-.184-1.53-1.129-2.722-2.1-1.191-.97-2.516-1.764-2.944-1.764-.428 0-1.155-.529-1.616-1.176-.461-.647-1.181-1.285-1.6-1.418-5.874-1.865-11.188-20.589-7.922-27.918.371-.831.872-2.631 1.113-4 .348-1.968.915-3.185 2.716-5.824 1.252-1.834 2.579-3.92 2.949-4.636.371-.715 1.165-1.623 1.766-2.017.6-.393 1.828-1.367 2.727-2.163.898-.796 1.994-1.665 2.434-1.93 3.439-2.073 5.968-3.313 7.248-3.553.828-.156 2.099-.633 2.825-1.061.878-.518 2.553-.887 5.022-1.104 2.038-.18 4.024-.454 4.413-.61.823-.328 8.204-.925 9.092-.735.33.07 1.95.464 3.6.874"/><path fill="#fbfcfb" d="M0 200v200h400V0H0v200m196.39-92.403c2.304.776 4.667 2.087 6.136 3.405.4.358 1.82.827 3.155 1.042 1.336.215 2.989.625 3.674.911.685.286 1.902.642 2.705.793.803.15 1.68.538 1.949.863.269.324.673.589.898.589 1.408 0 6.693 6.556 6.693 8.303 0 .276.45.894 1 1.372.553.481 1 1.303 1 1.84 0 .846.134.938 1.038.711.596-.149 1.281-.059 1.607.211.383.319 1.391.388 3.096.213 3.001-.307 3.851.181 8.459 4.859 1.54 1.564 3.05 3.079 3.355 3.367a307.03 307.03 0 0 1 2.352 2.285l1.797 1.762 7.38.238c8.047.261 8.221.317 8.767 2.839.119.55.584 2.44 1.033 4.2.449 1.761.896 5.089.994 7.4.12 2.833.42 4.79.923 6.011.494 1.202.832 3.355 1.004 6.4.143 2.524.521 5.281.839 6.127.319.846.752 3.784.961 6.529.21 2.745.66 5.922 1.001 7.062.341 1.139.717 3.781.835 5.871.118 2.09.463 4.52.766 5.4.747 2.169 1.393 7.21 1.393 10.866 0 2.354.166 3.219.763 3.978.574.73.831 1.935 1.036 4.863.15 2.141.531 4.928.848 6.193.316 1.265.736 4.775.932 7.8.197 3.025.622 6.233.946 7.128.324.896.792 3.506 1.039 5.8.248 2.295.727 5.072 1.063 6.172.337 1.1.716 3.89.842 6.2.125 2.31.547 5.19.937 6.4s.838 4.169.995 6.575c.157 2.407.425 4.657.596 5 1.688 3.409.547 5.625-2.895 5.625-1.008 0-1.571.251-1.995.889-.484.73-.983.895-2.786.925-1.208.019-2.809.323-3.558.675-.75.352-2.443.768-3.763.924-1.32.156-3.728.712-5.351 1.235-1.623.524-3.295.952-3.716.952-.421 0-1.435.342-2.253.759-.819.418-2.566.887-3.884 1.042-1.318.156-3.656.604-5.196.996-1.54.392-3.765.832-4.944.977-1.179.146-2.582.552-3.116.902-2.137 1.4-11.368 1.359-14.779-.066-.788-.33-3.171-.712-5.296-.851-2.126-.139-4.225-.476-4.665-.749-.44-.273-2.06-.62-3.6-.771-5.555-.545-9.23-1.098-10.8-1.626-.88-.295-2.864-.642-4.408-.769-1.544-.128-3.722-.504-4.838-.835-1.117-.332-3.093-.769-4.392-.973a92.25 92.25 0 0 1-5.049-.979c-1.477-.335-4.807-.804-7.4-1.042-2.974-.274-4.861-.627-5.113-.959-.258-.339-1.864-.621-4.527-.795-2.635-.171-4.588-.512-5.4-.941-.862-.455-2.825-.767-6.073-.964-3.243-.196-5.543-.561-7.09-1.123-1.26-.458-3.17-.833-4.246-.833-1.35 0-2.271-.248-2.973-.8-.792-.623-1.624-.8-3.754-.801-5.804-.003-13.537-1.481-15.282-2.922-.643-.531-.435-3.104.477-5.877.325-.99.711-4.23.857-7.2.146-2.97.603-6.93 1.015-8.8.413-1.87.945-5.755 1.182-8.634.238-2.879.617-5.849.842-6.6.226-.751.678-3.976 1.004-7.166.327-3.19.764-6.421.971-7.179.207-.759.571-4.089.81-7.4.239-3.312.679-6.921.979-8.021.299-1.1.746-4.636.992-7.857.246-3.222.632-6.462.857-7.2.225-.739.569-2.693.764-4.343.195-1.65.63-5.07.966-7.6.336-2.53.779-6.331.984-8.446.767-7.911 2.566-12.754 4.736-12.754.355 0 .943-.269 1.307-.598.363-.329 1.547-.715 2.631-.857 1.084-.143 2.781-.66 3.771-1.15 1.766-.875 5.182-1.801 9.654-2.62 2.378-.435 2.746-.939 2.746-3.765 0-.49.45-1.737 1-2.772.55-1.034 1-2.373 1-2.975 0-.601.332-1.745.737-2.54.406-.795.97-2.318 1.254-3.384.284-1.067.734-2.299 1-2.739.265-.44.615-1.336.776-1.991.334-1.354 2.596-5.009 3.1-5.009.183 0 .333-.23.333-.511s.54-1.102 1.2-1.825c.66-.722 1.2-1.466 1.2-1.653 0-.653 2.147-3.611 2.621-3.611.263 0 .586-.533.716-1.185.173-.865.665-1.404 1.821-1.994.871-.444 1.695-1.158 1.831-1.587.136-.429 1.094-1.273 2.129-1.876 1.035-.602 2.101-1.401 2.368-1.774.267-.373 1.057-.793 1.757-.933.699-.139 1.47-.514 1.714-.831 1.37-1.785 10.461-2.694 14.233-1.423m-10.064 8.737c-2.052.485-2.77.845-3.091 1.549-.23.504-.616.917-.858.917-.281 0-.345.434-.177 1.2.209.953.128 1.2-.393 1.2-2.167 0-4.584 1.311-5.417 2.94-.467.913-1.063 1.84-1.325 2.06-.261.22-1.272 1.615-2.246 3.1s-1.888 2.7-2.031 2.7c-.143 0-.504.739-.802 1.643-.298.903-.777 1.732-1.064 1.842-.287.11-.522.503-.522.873s-.373 1.386-.829 2.257c-.513.981-.832 2.348-.835 3.585-.004 1.1-.259 2.396-.567 2.879-.604.947-.506 1.083 1.046 1.452 1.777.423 9.185-2.364 9.185-3.455 0-.312.396-1.071.879-1.686.567-.72.986-2.001 1.178-3.601.29-2.403 2.22-6.189 3.156-6.189.196 0 .557-.747.803-1.661.784-2.909 3.511-7.24 6.156-9.774 1.96-1.878 2.699-3.621 1.782-4.202-.668-.423-.672-.422-4.028.371m11.764 6.377c-1.196.193-4.602 3.623-5.302 5.339-.303.742-.792 1.533-1.086 1.757-1.614 1.227-4.905 9.55-4.095 10.36.61.61 5.505-.69 9.793-2.599.88-.392 2.071-.829 2.648-.97 2.346-.578 1.78-13.158-.627-13.903-.231-.072-.831-.065-1.331.016m12.153 2.722c-.854 2.225-.076 7.229 1.161 7.466 2.2.42 3.27-4.488 1.55-7.113-.732-1.117-2.338-1.326-2.711-.353m-20.753 40.996c-2.921.224-5.187.607-5.968 1.011-.692.358-2.376.686-3.742.729-2.046.065-2.71.269-3.763 1.155-.703.592-1.52 1.076-1.814 1.076-.295 0-.596.135-.67.3-.199.449-3.215 2.385-4.139 2.657-.919.27-4.889 4.264-6.288 6.325-1.079 1.59-3.377 3.918-3.868 3.918-.184 0-.421.765-.528 1.7-.106.935-.619 2.6-1.14 3.7-1.428 3.019-1.465 15.994-.052 18.272.502.81 1.016 2.343 1.142 3.406.212 1.79.346 1.984 1.797 2.604 1.087.464 1.697 1.039 1.989 1.877.231.665.721 1.31 1.087 1.434.367.124 1.476.946 2.465 1.827.989.881 2.429 1.772 3.201 1.98 4.127 1.111 8.458 7.455 8.714 12.764l.189 3.926-1.556 1.652c-2.6 2.76-6.726 3.847-10.232 2.695-.943-.31-2.702-.767-3.909-1.016-1.207-.249-2.56-.692-3.006-.985-.446-.292-1.438-.668-2.205-.836-.767-.167-1.823-.641-2.348-1.052-1.331-1.044-1.536-.956-1.751.752-.103.825-.572 2.487-1.042 3.694-1.115 2.867-1.175 7.078-.121 8.452.402.525.848 1.273.991 1.663.142.39.578.811.968.935.39.125 1.609.645 2.709 1.156 1.1.512 2.63 1.188 3.4 1.502.77.315 2.39.996 3.6 1.513 2.023.865 2.866.953 10.468 1.092l8.267.15.67-1.411c.594-1.251.802-1.385 1.832-1.179.666.134 1.163.061 1.163-.168 0-.221.54-.626 1.2-.899.66-.273 1.2-.628 1.2-.788 0-.16.72-.615 1.6-1.012.88-.397 1.6-.868 1.6-1.047 0-.179.519-.916 1.153-1.639s1.435-1.989 1.779-2.813c.345-.825 1.068-1.7 1.607-1.946.711-.324 1.165-1.066 1.653-2.701.369-1.24.865-2.762 1.101-3.384.724-1.907.063-13.844-.902-16.292-.435-1.104-.791-2.26-.791-2.568 0-.308-.541-1.153-1.202-1.876-.661-.724-1.495-2.085-1.854-3.025s-.793-1.709-.964-1.709c-.318 0-1.74-1.11-3.415-2.665-.513-.476-1.982-1.514-3.266-2.306-1.283-.792-2.945-1.999-3.692-2.681-.747-.683-2.1-1.559-3.007-1.948-3.585-1.537-7.001-6.285-6.998-9.726.009-7.882 7.656-11.462 19.798-9.268 4.491.811 4.846.778 5.373-.506.249-.605.714-1.55 1.034-2.1.319-.55.584-1.952.587-3.116.004-1.259.309-2.717.753-3.6.412-.816.867-2.299 1.012-3.295.145-.995.531-2.327.859-2.959.328-.632.548-1.182.489-1.222-3.443-2.342-5.868-2.742-13.217-2.179"/><path fill="#c2d4aa" d="M192.451 108.375c3.404.358 6.871 1.747 8.978 3.597.9.79 1.964 1.261 3.254 1.439 2.858.396 6.608 1.378 7.534 1.973 2.991 1.924 6.737 6.374 8.854 10.517 1.208 2.364 2.342 4.451 2.52 4.637.306.318 3.138-.109 6.502-.979 2.075-.538 3.344.205 7.522 4.4 1.886 1.893 4.318 4.277 5.406 5.3l1.979 1.859 6.897.292c8.094.343 8.663.596 9.069 4.041.127 1.072.509 3.479.849 5.349.341 1.87.784 4.57.985 6l.365 2.6-.168-3.282c-.093-1.805-.444-4.415-.781-5.8-.336-1.385-.716-3.559-.844-4.831-.401-3.988-1.118-4.468-6.837-4.579-2.604-.05-5.816-.161-7.137-.246l-2.401-.154-5.399-5.295c-5.981-5.867-7.085-6.633-8.953-6.208-1.787.405-6.838 1.327-6.882 1.255a1053.8 1053.8 0 0 1-2.369-4.783c-3.978-8.06-7.541-10.864-15.788-12.423-2.023-.383-3.152-.835-3.923-1.573-2.016-1.929-5.522-3.213-9.075-3.325l-3.208-.101 3.051.32m-7.393.415c-.848.164-1.658.483-1.8.709-.142.226-.916.685-1.721 1.02-1.624.676-6.737 4.552-6.737 5.107 0 .195-.537.631-1.193.97-.657.34-1.494 1.199-1.861 1.911-.367.711-1.352 2.013-2.188 2.893-4.033 4.244-9.871 15.854-11.767 23.4-.914 3.642-1.845 6.512-2.301 7.1-.252.325-.248.5.012.5.506 0 1.014-1.278 2.303-5.8 1.242-4.358 2.438-7.853 3.421-10 4.053-8.852 6.539-12.824 11.035-17.633 5.569-5.958 9.907-8.969 14.339-9.954 2.534-.563 1.21-.755-1.542-.223m4.453 5.503c.94.085 2.38.084 3.2-.002.819-.086.049-.155-1.711-.154-1.76.002-2.43.072-1.489.156m-4.511.781c-.66.352-2.19 1.476-3.4 2.497-1.21 1.02-2.884 2.3-3.719 2.842-1.471.955-3.203 3.042-5.633 6.787-2.672 4.117-2.979 4.638-3.223 5.464-.141.475-.519 1.082-.84 1.349-.679.563-.798 1.366-.143.961.243-.15.741-.925 1.107-1.723 2.124-4.633 8.159-12.851 9.437-12.851.279 0 1.476-.905 2.661-2.01 1.967-1.837 3.61-2.873 5.753-3.628l.8-.282-.8-.024c-.44-.013-1.34.265-2 .618m9.725-.189c.45.45-4.231 5.515-5.097 5.515-.357 0-4.828 6.185-4.828 6.678 0 .134 1.092-1.224 2.427-3.018 1.335-1.793 2.565-3.26 2.734-3.26.986 0 5.712-5.23 5.24-5.799-.274-.33-.603-.601-.73-.601s-.013.218.254.485m14.875 5.884c.77.434 1.78.997 2.244 1.249.465.253 1.146 1.027 1.515 1.721.368.694 1.282 2.141 2.03 3.217 2.872 4.132 2.454 5.531-2.108 7.054-3.253 1.086-3.659.93-3.679-1.41-.01-1.298-1.5-9.032-1.797-9.328-.567-.567 1.014 9.04 1.815 11.028.532 1.319 6.7.039 7.738-1.605.665-1.055-.431-4.802-1.914-6.543-.728-.854-1.575-2.034-1.883-2.624-.613-1.172-2.931-2.902-4.42-3.299-.617-.164-.459.022.459.54m-12.6.849c-2.088 1.181-3.819 2.945-4.888 4.982-.347.66-1.234 1.939-1.971 2.841-.738.903-1.341 1.789-1.341 1.97 0 .181.81-.714 1.8-1.989.99-1.275 1.8-2.493 1.8-2.706 0-.929 5.999-5.916 7.117-5.916.183 0 .726.367 1.208.816.481.448.875.638.875.422 0-1.635-2.113-1.828-4.6-.42m4.642 1.382c-.046.646 1.377 7.352 1.611 7.586.33.331-.352-3.754-1-5.986-.32-1.1-.595-1.82-.611-1.6m-19.743 9.836c-1.207 2.121-2.623 6.088-2.843 7.964l-.211 1.8.42-1.8c.526-2.25 1.944-6.005 2.569-6.8.465-.592 1.139-2.402.893-2.397-.07.001-.442.556-.828 1.233m5.803.857c-3.982 8.322-3.594 10.801 1.298 8.307.863-.44 2.08-.8 2.704-.8.625 0 1.711-.297 2.413-.661.703-.363 1.729-.798 2.28-.965.805-.245.846-.312.211-.34-.436-.019-1.696.307-2.8.724-7.705 2.91-9.632 2.401-7.408-1.958.44-.862.8-1.869.8-2.237 0-.368.381-1.284.846-2.037.465-.752.761-1.452.659-1.554-.102-.103-.554.582-1.003 1.521m14.62 3.356c-.357.357-1.61.981-2.785 1.387-1.176.406-1.777.74-1.337.742 1.076.006 3.868-1.292 4.549-2.115.704-.851.42-.86-.427-.014m-35.862.279c-.56.675-2.849 7.29-3.07 8.872l-.168 1.2.339-1.2c.187-.66.718-2.01 1.181-3 .462-.99.844-2.122.849-2.516.005-.394.373-1.429.817-2.3.822-1.612.842-2.008.052-1.056m11.94 5.808c0 1.342-3.71 3.096-10.72 5.068-2.745.772-3.55.751-4.048-.104-.224-.385-.413-.511-.42-.28-.047 1.612 2.037 1.739 6.036.367a131.568 131.568 0 0 1 4.877-1.571c2.889-.836 5.355-2.869 4.507-3.717-.127-.128-.232-.021-.232.237m-26.4 9.823c-.55.295-2.08.815-3.4 1.155-12.997 3.346-15.033 4.583-15.611 9.486-.143 1.21-.496 3.1-.785 4.2-.29 1.1-.737 4.7-.994 8-.258 3.3-.644 6.462-.858 7.028-.214.565-.735 4.075-1.158 7.8-1.382 12.171-1.989 17.13-2.417 19.772-.594 3.66-.864 6.395-.434 4.386.167-.777.426-1.612.576-1.855.151-.244.544-3.388.874-6.987.33-3.599.774-7.174.987-7.944.214-.77.676-4.267 1.028-7.771.352-3.504.788-6.654.968-7 .181-.346.536-3.149.79-6.229.413-5.016 1.648-13.13 2.405-15.8.295-1.041 3.734-3.6 4.839-3.6.341 0 2.233-.554 4.205-1.231 1.972-.676 4.665-1.535 5.985-1.907 1.32-.372 2.654-.837 2.965-1.033.311-.196 1.121-.49 1.8-.652 1.092-.261 1.119-.299.235-.325-.55-.017-1.45.211-2 .507m111.254 7.716c-.029.482.227 2.088.571 3.571s.785 4.059.98 5.725c.351 3 .353 2.991.166-.883-.104-2.152-.441-4.672-.75-5.6-.308-.929-.64-2.138-.736-2.688-.155-.879-.183-.894-.231-.125m-75.051 4.582c-2.638.188-5.608.609-6.6.934-.991.324-2.703.78-3.803 1.012-5.207 1.097-12.139 6.061-16.443 11.775-1.169 1.552-2.384 3.092-2.699 3.422-1.527 1.598-4.286 12.475-4.189 16.515l.069 2.885.265-3.4c.303-3.892 1.564-9.603 2.536-11.482.364-.703.661-1.624.661-2.047 0-1.299 7.677-10.677 10-12.216 4.774-3.162 8.451-4.933 10.943-5.27 1.131-.153 2.597-.564 3.257-.913 1.886-.998 18.262-.966 20.1.038 1.545.844 1.738 2.588.642 5.776-.62 1.802-2.583 9.293-3.31 12.63-.479 2.197-1.552 2.45-6.387 1.505-10.879-2.126-19.621 1.547-19.641 8.253-.008 2.658 3.746 7.28 7.208 8.875.777.358 1.677.874 2 1.146.851.716 4.011 2.999 5.255 3.796 3.338 2.139 9.933 9.146 9.933 10.553 0 .253.434 1.426.965 2.608 2.134 4.748 2.108 18.086-.041 21.548-.619.998-.619.999.172.2.596-.602 1.016-2.189 1.696-6.4l.903-5.6-.839-4.361c-.461-2.398-1.203-5.059-1.647-5.912-.445-.853-.809-1.792-.809-2.085 0-1.875-5.588-7.853-10.407-11.136a135.716 135.716 0 0 1-3.793-2.685c-.88-.656-2.23-1.549-3-1.985-3.77-2.133-6.8-5.847-6.8-8.334 0-6.661 6.508-9.622 17.8-8.098 7.398.998 6.818 1.019 7.276-.257.87-2.424 1.761-5.66 2.323-8.437.322-1.59.949-3.969 1.393-5.288 2.456-7.29-.186-8.624-14.989-7.565m77.043 8.8c-.025.582.226 2.382.559 4 .332 1.619.772 4.293.977 5.943l.373 3-.2-3.8c-.11-2.09-.451-4.88-.757-6.2-.306-1.32-.635-2.76-.731-3.2-.132-.606-.185-.543-.221.257m1.983 14.143c-.014.44.173 1.511.414 2.379.241.869.592 2.759.779 4.2l.34 2.621-.177-3.2c-.159-2.893-1.297-7.926-1.356-6m1.61 10.048c-.021.467.312 2.897.741 5.4.429 2.504.849 5.272.933 6.152.128 1.34.163 1.243.217-.6.036-1.21-.116-3.19-.339-4.4-.808-4.403-1.514-7.38-1.552-6.552m-114.014 4.003c-.059 1.05 1.345 6.467 2.03 7.833.41.816.745 1.692.745 1.947 0 1.291 6.014 6.781 11.956 10.913 3.671 2.553 7.181 6.949 7.29 9.13.035.683.095.741.23.223.559-2.142-3.323-7.193-7.853-10.218-4.908-3.277-11.223-9.205-11.223-10.534 0-.424-.428-1.621-.952-2.658-.523-1.038-1.086-2.697-1.251-3.687-.31-1.866-.927-3.739-.972-2.949m115.994 9.949c-.009.22.343 2.251.782 4.514.44 2.263.826 4.783.859 5.6.052 1.284.083 1.33.231.338.229-1.535-.563-7.257-1.28-9.252-.317-.88-.583-1.42-.592-1.2m-145.556 9.838c-.273 2.949-.663 5.902-.867 6.562-.34 1.103-1.921 13.071-2.219 16.8l-.128 1.6.386-1.8c.598-2.793 1.936-12.813 1.951-14.62.008-.891.178-1.791.379-2 .396-.412 1.431-10.593 1.159-11.407-.091-.273-.388 1.916-.661 4.865M272.849 225c-.024.66.156 1.92.401 2.8.245.88.58 2.86.744 4.4l.297 2.8.055-2.674c.03-1.471-.143-3.181-.384-3.8-.241-.619-.58-1.936-.753-2.926-.244-1.395-.325-1.53-.36-.6m-96.049 9.781c0 1.026-1.917 4.263-2.722 4.595-4.463 1.842-14.449-.381-19.188-4.272-.28-.23-.596-.331-.702-.225-.302.302 7.186 4.331 9.145 4.921 5.298 1.594 10.119 1.081 12.161-1.295 1.23-1.43 2.088-3.856 1.554-4.39-.136-.137-.248.163-.248.666m97.657 1.619c-.008.77.249 2.75.571 4.4.323 1.65.848 5.061 1.169 7.58.32 2.519.773 5.489 1.007 6.6.234 1.111.593 3.01.797 4.22.356 2.102.363 2.067.175-.783-.108-1.64-.447-3.98-.753-5.2-.306-1.219-.757-4.359-1.003-6.977-.246-2.618-.551-4.928-.677-5.132-.127-.205-.464-1.663-.75-3.24-.334-1.839-.526-2.366-.536-1.468m-123.426 3.099A140.698 140.698 0 0 1 149.92 243c-1.368 3.993-1.241 7.98.277 8.671.536.244 1.425 1.094 1.975 1.889.825 1.19 1.583 1.648 4.315 2.604 1.822.638 3.986 1.495 4.808 1.904.822.409 2.622.824 4 .922l2.505.18-2.349-.377c-1.292-.207-2.552-.536-2.8-.732-.248-.195-1.441-.724-2.651-1.175-4.288-1.6-6.316-2.709-8.392-4.589l-2.101-1.902.263-2.698c.31-3.188.892-6.042 1.717-8.421.329-.949.518-1.804.421-1.902-.098-.097-.492.859-.877 2.125m46.601 6.847c-.161 2.777-9.426 10.422-15.232 12.569-.456.168-.468.229-.05.253 3.583.206 16.476-10.474 15.519-12.855-.159-.396-.213-.389-.237.033m-75.918 3.054c.003 1.1.081 1.503.173.895.092-.609.09-1.509-.005-2-.095-.492-.171.005-.168 1.105m-.841 5.8c-.275 2.09-.68 5.69-.899 8-.218 2.31-.577 4.759-.798 5.442-.83 2.577.925 4.149 4.64 4.156.669.001 2.273.277 3.565.614 1.291.336 2.526.552 2.744.48.593-.198-5.047-1.492-6.502-1.492-2.506 0-4.458-1.864-3.84-3.668.1-.293.564-3.892 1.032-7.999.886-7.786.932-12.153.058-5.533m49.527 4.414c1.43.161 3.5.286 4.6.278 1.889-.013 1.855-.03-.6-.306-1.43-.161-3.5-.286-4.6-.278-1.889.013-1.855.03.6.306m7.7-.127a8.899 8.899 0 0 0 2.2 0c.605-.092.11-.167-1.1-.167-1.21 0-1.705.075-1.1.167m100.354 3.726c-.029.557.208 1.997.528 3.2.32 1.203.802 4.47 1.071 7.26.557 5.776.432 6.183-1.983 6.437l-1.47.156 1.424.067c2.868.135 2.999-.24 2.43-6.942-.276-3.248-.748-6.644-1.048-7.548-.3-.904-.625-2.093-.721-2.643l-.176-1-.055 1.013m-146.949 11.07c.497.096 1.217.092 1.6-.008.382-.1-.025-.179-.905-.174-.88.004-1.193.086-.695.182m5.457.674c.859.325 3.199.798 5.2 1.051 2.001.254 5.211.805 7.134 1.226 3.478.762 6.782 1.039 3.904.328-1.603-.396-13.797-2.633-16.2-2.971l-1.6-.225 1.562.591m19.638 3.454c1.1.171 3.073.599 4.384.95 1.311.352 3.069.639 3.905.639.837 0 2.82.36 4.408.8 1.588.44 3.341.786 3.895.768 1.255-.04-6.19-1.939-7.667-1.956-.591-.007-2.571-.371-4.4-.809-1.829-.439-4.045-.776-4.925-.75-1.587.046-1.584.049.4.358m117.937 2.412c-.233.233-2.024.776-3.98 1.207-10.684 2.353-22.573 5.254-26.957 6.577-.99.298-2.61.667-3.6.818-.99.152-2.88.625-4.2 1.053-2.398.776-5.448.75-6.969-.06-.347-.184-1.891-.435-3.431-.557l-2.8-.221 2.4.384c1.32.212 2.76.593 3.2.847 1.555.897 6.255.906 8.218.015.98-.445 2.862-.935 4.182-1.09 1.32-.154 2.799-.532 3.286-.838.487-.307 1.223-.558 1.636-.558.412 0 2.174-.377 3.914-.838 1.74-.461 4.334-1.075 5.764-1.366 1.43-.29 3.126-.731 3.768-.978.642-.247 2.892-.8 5-1.229 2.108-.429 4.816-1.052 6.019-1.384 1.203-.333 2.585-.605 3.072-.605.486 0 1.134-.251 1.441-.557.306-.306.904-.645 1.328-.753.725-.185.722-.2-.048-.244-.451-.025-1.01.144-1.243.377m-97.137 1.205c1.76.212 3.997.653 4.971.979.974.326 2.324.594 3 .596.676.002 3.299.432 5.829.955 2.53.523 5.77 1.077 7.2 1.23 1.43.153 3.624.536 4.876.85 1.252.314 4.042.833 6.2 1.152 2.158.32 5.454.848 7.324 1.174 1.87.326 3.94.581 4.6.568.66-.014-.78-.356-3.2-.76l-7-1.173c-1.43-.24-4.4-.783-6.6-1.205-2.2-.422-5.8-1.054-8-1.403-2.2-.35-5.35-.888-7-1.197-1.65-.309-3.563-.569-4.251-.578-.688-.009-1.868-.274-2.622-.589-.754-.315-2.981-.665-4.949-.779l-3.578-.206 3.2.386"/><path fill="#d8ecaf" d="M185.8 107.666c-1.76.427-3.399 1.036-3.643 1.354-.244.317-1.015.692-1.714.831-.7.14-1.49.56-1.757.933-.267.373-1.333 1.172-2.368 1.774-1.035.603-1.993 1.447-2.129 1.876-.136.429-.96 1.143-1.831 1.587-1.156.59-1.648 1.129-1.821 1.994-.13.652-.453 1.185-.716 1.185-.474 0-2.621 2.958-2.621 3.611 0 .187-.54.931-1.2 1.653-.66.723-1.2 1.544-1.2 1.825 0 .281-.15.511-.333.511-.504 0-2.766 3.655-3.1 5.009-.161.655-.511 1.551-.776 1.991-.266.44-.716 1.672-1 2.739-.284 1.066-.848 2.589-1.254 3.384-.405.795-.737 1.939-.737 2.54 0 .602-.45 1.941-1 2.975-.55 1.035-1 2.282-1 2.772 0 2.826-.368 3.33-2.746 3.765-4.472.819-7.888 1.745-9.654 2.62-.99.49-2.687 1.007-3.771 1.15-1.084.142-2.268.528-2.631.857-.364.329-.952.598-1.307.598-2.17 0-3.969 4.843-4.736 12.754a293.173 293.173 0 0 1-.984 8.446c-.336 2.53-.771 5.95-.966 7.6-.195 1.65-.539 3.604-.764 4.343-.225.738-.611 3.978-.857 7.2-.246 3.221-.693 6.757-.992 7.857-.3 1.1-.74 4.709-.979 8.021-.239 3.311-.603 6.641-.81 7.4-.207.758-.644 3.989-.971 7.179-.326 3.19-.778 6.415-1.004 7.166-.225.751-.604 3.721-.842 6.6-.237 2.879-.769 6.764-1.182 8.634-.412 1.87-.869 5.83-1.015 8.8-.146 2.97-.532 6.21-.857 7.2-.912 2.773-1.12 5.346-.477 5.877 1.745 1.441 9.478 2.919 15.282 2.922 2.13.001 2.962.178 3.754.801.702.552 1.623.8 2.973.8 1.076 0 2.986.375 4.246.833 1.547.562 3.847.927 7.09 1.123 3.248.197 5.211.509 6.073.964.812.429 2.765.77 5.4.941 2.663.174 4.269.456 4.527.795.252.332 2.139.685 5.113.959 2.593.238 5.923.707 7.4 1.042a92.25 92.25 0 0 0 5.049.979c1.299.204 3.275.641 4.392.973 1.116.331 3.294.707 4.838.835 1.544.127 3.528.474 4.408.769 1.57.528 5.245 1.081 10.8 1.626 1.54.151 3.16.498 3.6.771.44.273 2.539.61 4.665.749 2.125.139 4.508.521 5.296.851 3.411 1.425 12.642 1.466 14.779.066.534-.35 1.937-.756 3.116-.902 1.179-.145 3.404-.585 4.944-.977s3.878-.84 5.196-.996c1.318-.155 3.065-.624 3.884-1.042.818-.417 1.832-.759 2.253-.759.421 0 2.093-.428 3.716-.952 1.623-.523 4.031-1.079 5.351-1.235 1.32-.156 3.013-.572 3.763-.924.749-.352 2.35-.656 3.558-.675 1.803-.03 2.302-.195 2.786-.925.424-.638.987-.889 1.995-.889 3.442 0 4.583-2.216 2.895-5.625-.171-.343-.439-2.593-.596-5-.157-2.406-.605-5.365-.995-6.575s-.812-4.09-.937-6.4c-.126-2.31-.504-5.1-.84-6.2-.336-1.1-.802-3.8-1.037-6-.234-2.2-.676-4.81-.983-5.8-.307-.99-.638-2.16-.737-2.6-.176-.786-.18-.785-.226.016-.025.449.233 1.887.574 3.197.341 1.309.806 4.362 1.034 6.784.228 2.421.661 5.393.964 6.603.302 1.21.733 4.146.958 6.523.224 2.378.671 5.098.992 6.043.843 2.483 1.717 13.309 1.122 13.904-.252.252-1.557.608-2.901.792-1.343.184-2.713.605-3.044.936-.331.331-1 .602-1.486.602-.487 0-1.869.272-3.072.605-1.203.332-3.911.955-6.019 1.384-2.108.429-4.358.982-5 1.229-.642.247-2.338.688-3.768.978-1.43.291-4.024.905-5.764 1.366-1.74.461-3.502.838-3.914.838-.413 0-1.149.251-1.636.558-.487.306-1.966.684-3.286.838-1.32.155-3.202.645-4.182 1.09-1.928.875-7.046.883-8.104.013-.282-.233-3.574-.821-7.314-1.308-3.74-.486-7.07-1.024-7.4-1.196-.33-.172-1.86-.436-3.4-.587-1.54-.151-4.24-.601-6-1-1.76-.399-4.37-.854-5.8-1.012-1.43-.158-4.67-.715-7.2-1.238-2.53-.523-5.162-.953-5.85-.955-.687-.002-1.96-.254-2.828-.56-.868-.306-3.546-.763-5.95-1.016-2.405-.252-5.679-.811-7.276-1.243-1.598-.431-3.589-.784-4.425-.784-.836 0-2.859-.342-4.496-.76-1.636-.418-4.055-.882-5.375-1.031-1.32-.15-3.93-.601-5.8-1.004-1.87-.403-5.02-.939-7-1.192-1.98-.253-4.371-.719-5.314-1.036-.943-.318-2.563-.579-3.6-.582-1.037-.002-3.326-.36-5.086-.795-1.76-.435-3.74-.794-4.4-.798-3.71-.021-5.452-1.588-4.624-4.16.221-.683.575-3.132.787-5.442.213-2.31.663-6.27 1.001-8.8.338-2.53.781-5.95.984-7.6l1.23-10c.473-3.85 1.033-7.63 1.244-8.4.211-.77.733-4.55 1.159-8.4.427-3.85.965-8.17 1.197-9.6.428-2.643 1.036-7.618 2.416-19.772.423-3.725.944-7.235 1.158-7.8.214-.566.6-3.728.858-7.028.257-3.3.704-6.9.994-8 .289-1.1.642-2.99.785-4.2.578-4.904 2.59-6.127 15.611-9.488 1.32-.34 2.878-.865 3.462-1.166.584-.3 1.507-.546 2.051-.546 1.51 0 2.049-1.113 3.678-7.6 1.896-7.546 7.734-19.156 11.767-23.4.836-.88 1.821-2.182 2.188-2.893.367-.712 1.204-1.571 1.861-1.911.656-.339 1.193-.775 1.193-.97 0-.546 5.101-4.425 6.695-5.092.782-.326 1.657-.829 1.945-1.116 2.624-2.625 14.779-1.25 18.243 2.063.771.738 1.9 1.19 3.923 1.573 8.247 1.559 11.81 4.363 15.788 12.423a1053.8 1053.8 0 0 0 2.369 4.783c.044.072 5.095-.85 6.882-1.255 1.868-.425 2.972.341 8.953 6.208l5.399 5.295 2.401.154c1.321.085 4.533.196 7.137.246 5.718.111 6.434.59 6.84 4.579.129 1.272.509 3.483.845 4.913.335 1.43.776 4.536.979 6.901.204 2.366.63 5.068.948 6.004.318.937.773 3.978 1.01 6.759.238 2.781.628 5.569.866 6.196.239.627.677 3.66.973 6.74.297 3.08.731 6.099.965 6.709.234.609.608 3.045.832 5.413.223 2.367.688 5.378 1.034 6.691.346 1.313.77 4.187.944 6.387l.315 4 .057-3.071c.067-3.59-.552-8.653-1.336-10.929-.303-.88-.648-3.31-.766-5.4-.118-2.09-.494-4.732-.835-5.871-.341-1.14-.791-4.317-1.001-7.062-.209-2.745-.642-5.683-.961-6.529-.318-.846-.696-3.603-.839-6.127-.172-3.045-.51-5.198-1.004-6.4-.503-1.221-.803-3.178-.923-6.011-.098-2.311-.545-5.639-.994-7.4-.449-1.76-.914-3.65-1.033-4.2-.546-2.522-.72-2.578-8.767-2.839l-7.38-.238-1.797-1.762a307.03 307.03 0 0 0-2.352-2.285c-.305-.288-1.815-1.803-3.355-3.367-4.608-4.678-5.458-5.166-8.459-4.859-1.705.175-2.713.106-3.096-.213-.326-.27-1.011-.36-1.607-.211-.904.227-1.038.135-1.038-.711 0-.537-.447-1.359-1-1.84-.55-.478-1-1.096-1-1.372 0-1.747-5.285-8.303-6.693-8.303-.225 0-.629-.265-.898-.589-.269-.325-1.146-.713-1.949-.863-.803-.151-2.02-.507-2.705-.793-.685-.286-2.338-.696-3.674-.911-1.335-.215-2.755-.684-3.155-1.042-4.306-3.862-9.936-4.985-16.726-3.336m1.2 7.096c-2.143.755-3.786 1.791-5.753 3.628-1.185 1.105-2.382 2.01-2.661 2.01-1.234 0-6.725 7.407-9.49 12.8-.395.77-1.331 2.57-2.081 4-.749 1.43-1.376 2.96-1.393 3.4-.016.44-.476 1.759-1.022 2.931-2.748 5.904-1.452 6.362 8.412 2.973 4.806-1.652 5.469-2.301 6.006-5.882.163-1.089.645-2.799 1.072-3.8 1.351-3.173 3.564-7.608 3.899-7.815.177-.11.435-.646.572-1.193.137-.546.659-1.583 1.16-2.304 2.487-3.579 3.658-5.11 3.907-5.11.866 0 5.547-5.065 5.097-5.515-.525-.525-6.322-.618-7.725-.123m3.354 1.201c.917.581.178 2.324-1.782 4.202-2.645 2.534-5.372 6.865-6.156 9.774-.246.914-.607 1.661-.803 1.661-.936 0-2.866 3.786-3.156 6.189-.192 1.6-.611 2.881-1.178 3.601-.483.615-.879 1.374-.879 1.686 0 1.091-7.408 3.878-9.185 3.455-1.552-.369-1.65-.505-1.046-1.452.308-.483.563-1.779.567-2.879.003-1.237.322-2.604.835-3.585.456-.871.829-1.887.829-2.257 0-.37.235-.763.522-.873.287-.11.766-.939 1.064-1.842.298-.904.659-1.643.802-1.643.143 0 1.057-1.215 2.031-2.7.974-1.485 1.985-2.88 2.246-3.1.262-.22.858-1.147 1.325-2.06.833-1.629 3.25-2.94 5.417-2.94.521 0 .602-.247.393-1.2-.168-.766-.104-1.2.177-1.2.242 0 .628-.413.858-.917.321-.704 1.039-1.064 3.091-1.549 3.356-.793 3.36-.794 4.028-.371m17.396 5.022c-.227.594.007 1.946 1.474 8.492.207.923.379 2.273.382 3 .012 2.471.39 2.629 3.675 1.533 4.562-1.523 4.98-2.922 2.108-7.054-.748-1.076-1.654-2.496-2.013-3.156-1.186-2.178-5.116-4.144-5.626-2.815m-9.873.593c-2.085 1.335-4.732 3.815-5.361 5.022-.344.66-1.186 1.911-1.871 2.781-1.394 1.771-3.445 5.634-3.445 6.491 0 .308-.36 1.266-.8 2.128-2.225 4.361-.522 4.823 7.4 2.005 1.1-.391 3.024-.923 4.275-1.181 5.285-1.092 5.964-2.96 4.286-11.776-1.154-6.057-1.985-7.071-4.484-5.47m2.591 2.335c1.636 2.843 1.324 12.255-.42 12.685-.577.141-1.768.578-2.648.97-4.288 1.909-9.183 3.209-9.793 2.599-.81-.81 2.481-9.133 4.095-10.36.294-.224.783-1.015 1.086-1.757 1.697-4.161 6.254-6.616 7.68-4.137m12.486 1.873c.904 1.38.91 6.427.008 6.931-1.185.664-2.459.099-2.72-1.206-1.022-5.11.714-8.775 2.712-5.725M184.8 165.953c-1.21.149-2.56.47-3 .713-.44.243-1.726.567-2.857.72-2.492.336-6.168 2.106-10.943 5.269-2.289 1.517-10 10.912-10 12.185 0 .406-.345 1.508-.767 2.449-2.98 6.644-3.062 15.233-.207 21.42.536 1.16.974 2.446.974 2.858 0 1.304 6.352 7.259 11.182 10.484 5.13 3.426 8.075 7.549 8.075 11.305-.001 8.291-8.731 9.888-19.815 3.624-3.227-1.823-4.046-2.139-4.438-1.708-1.014 1.113-2.801 7.979-3.234 12.425l-.263 2.698 2.101 1.902c2.076 1.88 4.104 2.989 8.392 4.589 1.21.451 2.396.974 2.635 1.162 1.144.899 11.675 1.688 16.365 1.226 7.082-.698 17.577-8.223 18.824-13.497.154-.647.601-1.717.996-2.377 2.248-3.763 2.336-16.872.145-21.748-.531-1.182-.965-2.355-.965-2.608 0-1.407-6.595-8.414-9.933-10.553-1.244-.797-4.404-3.08-5.255-3.796-.323-.272-1.223-.788-2-1.146-3.462-1.595-7.216-6.217-7.208-8.875.02-6.706 8.762-10.379 19.641-8.253 4.835.945 5.908.692 6.387-1.505.727-3.337 2.69-10.828 3.31-12.63 1.097-3.19.903-4.933-.642-5.766-1.413-.762-12.915-1.135-17.5-.567m15.825 1.501c1.086.594 2.023 1.114 2.082 1.154.059.04-.161.59-.489 1.222-.328.632-.714 1.964-.859 2.959-.145.996-.6 2.479-1.012 3.295-.444.883-.749 2.341-.753 3.6-.003 1.164-.268 2.566-.587 3.116-.32.55-.785 1.495-1.034 2.1-.527 1.284-.882 1.317-5.373.506-12.142-2.194-19.789 1.386-19.798 9.268-.003 3.441 3.413 8.189 6.998 9.726.907.389 2.26 1.265 3.007 1.948.747.682 2.409 1.889 3.692 2.681 1.284.792 2.753 1.83 3.266 2.306 1.675 1.555 3.097 2.665 3.415 2.665.171 0 .605.769.964 1.709.359.94 1.193 2.301 1.854 3.025.661.723 1.202 1.568 1.202 1.876 0 .308.356 1.464.791 2.568.965 2.448 1.626 14.385.902 16.292-.236.622-.732 2.144-1.101 3.384-.488 1.635-.942 2.377-1.653 2.701-.539.246-1.262 1.121-1.607 1.946-.344.824-1.145 2.09-1.779 2.813-.634.723-1.153 1.46-1.153 1.639 0 .179-.72.65-1.6 1.047-.88.397-1.6.852-1.6 1.012 0 .16-.54.515-1.2.788-.66.273-1.2.678-1.2.899 0 .229-.497.302-1.163.168-1.03-.206-1.238-.072-1.832 1.179l-.67 1.411-8.267-.15c-7.602-.139-8.445-.227-10.468-1.092-1.21-.517-2.83-1.198-3.6-1.513-.77-.314-2.3-.99-3.4-1.502-1.1-.511-2.319-1.031-2.709-1.156-.39-.124-.826-.545-.968-.935-.143-.39-.589-1.138-.991-1.663-1.054-1.374-.994-5.585.121-8.452.47-1.207.939-2.869 1.042-3.694.215-1.708.42-1.796 1.751-.752.525.411 1.581.885 2.348 1.052.767.168 1.759.544 2.205.836.446.293 1.799.736 3.006.985 1.207.249 2.966.706 3.909 1.016 3.506 1.152 7.632.065 10.232-2.695l1.556-1.652-.189-3.926c-.256-5.309-4.587-11.653-8.714-12.764-.772-.208-2.212-1.099-3.201-1.98-.989-.881-2.098-1.703-2.465-1.827-.366-.124-.856-.769-1.087-1.434-.292-.838-.902-1.413-1.989-1.877-1.451-.62-1.585-.814-1.797-2.604-.126-1.063-.64-2.596-1.142-3.406-1.413-2.278-1.376-15.253.052-18.272.521-1.1 1.034-2.765 1.14-3.7.107-.935.344-1.7.528-1.7.491 0 2.789-2.328 3.868-3.918 1.399-2.061 5.369-6.055 6.288-6.325.924-.272 3.94-2.208 4.139-2.657.074-.165.375-.3.67-.3.294 0 1.111-.484 1.814-1.076 1.053-.886 1.717-1.09 3.763-1.155 1.366-.043 3.05-.371 3.742-.729 3.174-1.641 14.097-1.632 17.103.014m70.772 45.746c.808 3.14.987 4.228 1.407 8.559.253 2.618.655 5.228.892 5.8.238.573.564 2.481.727 4.241.281 3.059.289 3.014.168-1.018-.07-2.32-.395-5.29-.723-6.6-.328-1.31-.72-4.138-.87-6.284-.214-3.06-.444-4.096-1.066-4.8l-.793-.898.258 1"/><path fill="#acc494" d="M186.6 108.991c-4.47 1.035-8.791 4.041-14.339 9.976-4.496 4.809-6.982 8.781-11.035 17.633-.983 2.147-2.179 5.642-3.421 10-1.582 5.55-1.69 5.744-3.349 6.043-.801.144-1.816.456-2.256.694-.44.237-1.88.74-3.2 1.117-1.32.377-4.013 1.239-5.985 1.915-1.972.677-3.864 1.231-4.205 1.231-1.105 0-4.544 2.559-4.839 3.6-.757 2.67-1.992 10.784-2.405 15.8-.254 3.08-.609 5.883-.79 6.229-.18.346-.616 3.496-.968 7s-.814 7.001-1.028 7.771c-.213.77-.657 4.339-.986 7.931-.329 3.592-.775 6.86-.99 7.262-.215.402-.679 3.943-1.031 7.869-.352 3.926-.804 7.309-1.006 7.518-.202.209-.366 1.019-.366 1.8.002 2.119-1.164 11.641-1.595 13.02-.205.66-.569 3.27-.807 5.8-.661 7.014-2.014 18.934-2.217 19.532-.624 1.832 1.339 3.668 3.923 3.668.739 0 2.683.344 4.32.766 1.636.421 4.685.959 6.775 1.196 2.09.237 6.77.981 10.4 1.653 3.63.673 7.86 1.409 9.4 1.636 1.54.227 4.42.759 6.4 1.183 1.98.425 4.008.77 4.506.769.498-.002 2.748.43 5 .959 2.252.53 5.624 1.086 7.493 1.237 1.87.15 4.007.527 4.749.837.742.31 1.913.571 2.601.58.688.009 2.601.269 4.251.578 1.65.309 4.8.847 7 1.197 2.2.349 5.8.981 8 1.403 4.977.956 7.304 1.349 16.6 2.81 4.07.639 8.404 1.374 9.632 1.633 1.969.416 2.557.374 5-.365 1.522-.46 3.488-.948 4.368-1.085.88-.137 2.41-.491 3.4-.786 4.526-1.351 16.345-4.233 26.923-6.564 1.937-.427 3.749-.965 4.026-1.195.277-.23 1.525-.538 2.774-.684 3.263-.384 3.306-.487 2.734-6.597-.267-2.852-.649-5.614-.849-6.139-.199-.525-.654-3.265-1.011-6.088-.357-2.824-.811-5.764-1.01-6.534-.198-.77-.633-3.56-.965-6.2-.333-2.64-.863-6.159-1.179-7.821-.316-1.661-.697-4.541-.847-6.4-.149-1.858-.507-4.459-.794-5.779-.287-1.32-.641-3.57-.787-5-.146-1.43-.69-5.12-1.209-8.2-1.301-7.716-2.562-16.163-3.001-20.086-.202-1.808-.545-3.968-.763-4.8-.218-.833-.589-3.314-.823-5.514-.234-2.2-.69-5.35-1.013-7-.322-1.65-.769-4.847-.992-7.103-.223-2.257-.67-5.317-.993-6.8-.323-1.484-.782-4.407-1.02-6.497s-.697-5.24-1.021-7c-.323-1.76-.69-4.077-.816-5.149-.403-3.445-.971-3.698-9.067-4.041l-6.897-.292-1.979-1.859c-1.088-1.023-3.52-3.407-5.406-5.3-4.178-4.195-5.447-4.938-7.522-4.4-3.364.87-6.196 1.297-6.502.979-.178-.186-1.312-2.273-2.52-4.637-2.117-4.143-5.863-8.593-8.854-10.517-.926-.595-4.676-1.577-7.534-1.973-1.29-.178-2.354-.649-3.254-1.439-3.499-3.072-9.355-4.249-14.829-2.981m9.973 1.369c1.513.639 2.912 1.449 3.109 1.8.614 1.098 2.597 1.847 6.02 2.275 4.784.598 8.698 2.988 8.698 5.311 0 .33.405.726.9.881.495.154.99.396 1.1.536.11.141.67.554 1.245.919.736.468 1.121 1.143 1.304 2.291.143.895.421 1.627.617 1.627.195 0 .556.495.8 1.1.245.605 1.01 1.887 1.699 2.85l1.255 1.749 3.003-.272c1.652-.149 3.47-.506 4.04-.793 1.48-.743 3.162.059 5.531 2.64 1.048 1.142 2.536 2.627 3.305 3.301.77.674 2.341 2.154 3.491 3.29 2.344 2.313 2.746 2.405 11.894 2.715 4.63.157 5.804.911 5.829 3.742.006.813.368 3.458.803 5.878.435 2.42 1.066 6.56 1.401 9.2.336 2.64.773 5.34.971 6 .199.66.657 4.049 1.02 7.531.362 3.482.914 6.941 1.225 7.687.312.746.57 2.397.573 3.669.004 1.272.348 3.933.765 5.913.418 1.98.964 5.76 1.214 8.4.25 2.64.626 5.344.836 6.008.209.664.646 3.476.97 6.248.324 2.772.758 5.485.965 6.027.206.543.577 2.771.823 4.952.247 2.181.635 4.865.863 5.965.227 1.1.748 4.7 1.157 8 .823 6.638 1.708 12.634 2.627 17.8.332 1.87.774 5.02.982 7 .208 1.98.645 4.694.972 6.031.327 1.337.716 4.166.865 6.287l.271 3.858-1.084.412c-.596.227-1.567.413-2.158.414-.591.002-1.568.261-2.173.576-.604.315-2.674.862-4.6 1.215-1.925.353-4.088.829-4.807 1.057-1.578.503-8.187 2.11-13.026 3.17-1.943.425-3.717.887-3.944 1.027-.385.238-1.514.521-10.324 2.591-2.093.492-4.092.719-5.2.59-.99-.116-3.754-.398-6.143-.628-2.388-.23-4.662-.589-5.053-.798-.391-.209-2.037-.575-3.657-.812-1.621-.238-5.197-.871-7.947-1.406-2.75-.536-6.44-1.152-8.2-1.369-5.185-.639-12.027-1.894-12.916-2.37-.453-.242-3.132-.628-5.954-.857-2.821-.228-6.57-.758-8.33-1.177-8.06-1.919-12.319-2.722-16.897-3.187-2.139-.217-4.073-.638-4.589-.999-.491-.344-1.543-.625-2.339-.625s-3.141-.345-5.211-.768c-2.07-.422-5.814-.893-8.32-1.047-3.033-.186-5.114-.526-6.222-1.017-.916-.405-3.096-.859-4.844-1.009-3.863-.332-5.518-1.66-4.591-3.685.288-.63.639-4.382.85-9.074.418-9.322.9-14.001 1.516-14.743.242-.292.62-2.224.84-4.294.22-2.069.578-4.843.796-6.163.218-1.32.691-5.46 1.051-9.2.973-10.101 1.008-10.353 1.501-10.959.25-.308.578-1.928.729-3.6.15-1.673.454-4.661.675-6.641.221-1.98.6-5.4.843-7.6.242-2.2.695-5.26 1.007-6.8.311-1.54.768-4.917 1.014-7.504.247-2.587.616-5.286.82-5.997.204-.712.372-2.195.373-3.296.006-8.635 2.409-13.073 7.299-13.478 1.398-.116 2.589-.463 3.064-.893.428-.388 1.553-.878 2.5-1.091.948-.213 1.998-.636 2.335-.941.337-.305 1.405-.732 2.375-.95.97-.218 1.921-.678 2.114-1.023.203-.363.89-.63 1.631-.633 2.212-.011 3.627-2.029 4.041-5.765.185-1.667.488-2.528 1.022-2.902.522-.366.848-1.253 1.041-2.83.155-1.263.604-2.755.997-3.315.394-.559 1.181-2.349 1.75-3.977.569-1.627 1.37-3.329 1.78-3.782.707-.78 1.027-1.322 2.729-4.618.768-1.486 1.594-2.621 2.442-3.354 1.828-1.58 2.757-2.558 2.98-3.139.14-.366.76-.984 1.377-1.372.616-.389 1.666-1.3 2.331-2.024.666-.724 1.521-1.316 1.9-1.316.423 0 .69-.309.69-.8 0-.44.155-.8.344-.8.189 0 .98-.431 1.757-.959.777-.527 2.017-1.089 2.756-1.248.739-.159 1.973-.62 2.743-1.024 2.246-1.177 6.03-1.019 9.373.391M190 113.191c-.55.181-1.864.347-2.92.369-1.978.041-3.759.73-4.644 1.797-.32.386-.896.534-1.571.404-.944-.181-1.15-.009-1.813 1.517-.518 1.192-1.289 2.057-2.506 2.81-.966.598-1.93 1.543-2.141 2.1-.212.557-.558 1.012-.768 1.012-.211 0-.511.405-.668.9-.156.495-.708 1.457-1.227 2.138-.518.681-.942 1.418-.942 1.638 0 .22-.355.722-.79 1.115-.434.393-.902 1.069-1.04 1.503-.137.434-.682 1.425-1.21 2.203-.528.778-.96 1.91-.96 2.516 0 .606-.251 1.198-.557 1.315-.748.287-2.487 4.065-2.83 6.149-.151.922-.52 1.88-.819 2.128-1.443 1.198-.843 4.605.984 5.583 1.262.675 3.166.487 3.915-.388.377-.44 1.14-.802 1.696-.804.556-.002 1.974-.452 3.151-1 1.177-.548 2.675-.996 3.33-.996 1.745 0 3.341-1.798 4.12-4.641.355-1.297.908-2.95 1.228-3.673.32-.722.582-1.748.582-2.28 0-.531.293-1.13.651-1.331.388-.217.785-1.215.985-2.475.201-1.274.657-2.414 1.149-2.872.448-.417.815-.996.815-1.285 0-.289.436-.997.969-1.572.533-.575 1.085-1.411 1.227-1.858.142-.447.43-.813.641-.813.21 0 .556-.455.767-1.01.211-.556.688-1.127 1.059-1.27.726-.278 1.527-.911 3.249-2.567.598-.575 1.592-1.367 2.209-1.759 3.309-2.105-1.161-5.971-5.321-4.603m4.849 1.569.938.759-2.76 2.641c-1.518 1.452-2.898 2.64-3.066 2.64-.433 0-5.161 6.418-5.161 7.006 0 .268-.334.915-.742 1.44-.408.525-.971 1.674-1.25 2.554-.28.88-.72 1.87-.977 2.2-.692.886-2.121 4.763-2.433 6.6-.635 3.743-1.729 4.991-5.273 6.016a131.568 131.568 0 0 0-4.877 1.571c-6.428 2.206-7.182 1.062-4.463-6.772.685-1.972 1.487-3.862 1.783-4.2.295-.338.673-1.065.84-1.615.166-.55.637-1.429 1.047-1.954.41-.525.745-1.145.745-1.378 0-.234.423-1.065.94-1.846.517-.782 1.466-2.232 2.108-3.222 2.43-3.745 4.162-5.832 5.633-6.787.835-.542 2.509-1.821 3.719-2.841 3.563-3.003 4.798-3.464 9.456-3.531 2.251-.032 3.054.12 3.793.719m11.784 5.285c-1.043.821-1.053.87-.354 1.644.594.658.721 1.511.723 4.855.003 6.585 2.043 10.916 4.53 9.618.587-.306 1.608-.559 2.268-.562 4.331-.017 6.228-2.003 5.031-5.27-.429-1.171-.836-2.562-.905-3.089-.069-.528-.473-1.158-.897-1.4-1.191-.681-2.625-2.325-3.088-3.541-.231-.605-.601-1.1-.822-1.1-.222 0-.938-.45-1.592-1-1.479-1.245-3.43-1.306-4.894-.155m-8.926.355c-.377.44-1.109.8-1.627.8-1.092 0-3.832 2.58-4.287 4.037-.165.53-.984 1.784-1.82 2.786-.836 1.003-1.642 2.313-1.792 2.91-.15.597-.596 1.313-.992 1.59-.396.277-.85 1.218-1.008 2.091-.158.872-.623 1.908-1.034 2.302-.411.393-.755 1.023-.765 1.4-.009.376-.272 1.401-.585 2.278-1.163 3.267 1.431 4.561 5.344 2.666 1.295-.627 3.059-1.235 3.919-1.351.861-.115 2.392-.586 3.403-1.047 1.011-.46 2.537-.949 3.392-1.085 3.249-.52 3.981-1.846 4.328-7.845.259-4.467.227-4.761-.756-6.838-.565-1.194-1.027-2.644-1.027-3.222 0-1.933-3.388-2.995-4.693-1.472m13.834 1.068c.803.543 1.711 1.47 2.02 2.06.308.59 1.155 1.77 1.883 2.624 1.483 1.741 2.579 5.488 1.914 6.543-.395.625-5.377 2.495-6.667 2.502-.867.004-1.259-.921-2.032-4.797-2.047-10.257-1.514-11.909 2.882-8.932m-10.816-.368c1.652 1.42 3.074 9.272 2.515 13.886-.291 2.408-1.632 3.508-5.165 4.237-1.251.258-2.943.809-3.759 1.223-.816.415-1.993.754-2.615.754-.623 0-1.838.36-2.701.8-2.878 1.467-4.521.772-3.982-1.683.561-2.555 3.513-8.731 5.217-10.917.686-.88 1.53-2.14 1.877-2.8 2.084-3.971 6.852-7.015 8.613-5.5m-8.417 42.517c-2.14.16-4.21.418-4.6.573-.389.156-2.375.43-4.413.61-2.469.217-4.144.586-5.022 1.104-.726.428-1.997.905-2.825 1.061-1.28.24-3.809 1.48-7.248 3.553-.44.265-1.536 1.134-2.434 1.93-.899.796-2.127 1.77-2.727 2.163-.601.394-1.395 1.302-1.766 2.017-.37.716-1.697 2.802-2.949 4.636-1.801 2.639-2.368 3.856-2.716 5.824-.241 1.369-.742 3.169-1.113 4-1.138 2.555-.92 11.621.405 16.803 1.08 4.229 5.251 10.395 7.517 11.115.419.133 1.139.771 1.6 1.418.461.647 1.188 1.176 1.616 1.176.428 0 1.753.794 2.944 1.764 1.192.971 2.417 1.916 2.722 2.1.827.5 3.501 4.712 3.501 5.515 0 .383.36.79.8.905 1.057.276 1.07 2.148.022 3.096-.427.387-.832 1.087-.9 1.556-.523 3.645-9.568 3.624-15.078-.035-.746-.496-1.541-.901-1.768-.901-.227 0-.729-.286-1.115-.636-1.681-1.521-5.161-1.245-5.161.41 0 .29-.258.742-.574 1.005-.316.262-.868 1.768-1.227 3.347-.36 1.579-.892 3.142-1.184 3.473-.303.343-.652 2.191-.816 4.313l-.286 3.712 1.472 1.388c.81.763 1.729 1.388 2.043 1.388.315 0 .572.242.572.538 0 1.301 1.784 2.579 4 2.866 1.21.156 3.117.714 4.239 1.24 1.424.668 2.749.957 4.4.958 1.302.002 2.87.268 3.496.595 1.826.952 7.998 1.213 11.065.467a94.337 94.337 0 0 1 4.967-1.047c1.302-.228 2.666-.685 3.032-1.016.365-.33.966-.601 1.336-.601.37 0 1.237-.54 1.928-1.2.691-.66 1.398-1.2 1.572-1.2 1.513 0 6.858-6.95 7.074-9.198.13-1.353.373-2.002.75-2.002.581 0 .779-.401 1.942-3.932.766-2.326 1.446-12.339.955-14.068-.669-2.359-2.365-6.548-2.893-7.149-.316-.358-.695-1.222-.843-1.919-.148-.698-.709-1.742-1.245-2.321-.536-.579-.975-1.313-.975-1.632 0-.318-.165-.579-.367-.579-.202 0-1.081-.685-1.952-1.523-1.586-1.523-2.468-2.204-5.283-4.077-.827-.55-2.539-1.72-3.806-2.6-1.266-.88-2.909-1.974-3.652-2.431-10.095-6.219-5.656-15.718 6.915-14.796 2.154.158 4.468.518 5.143.8 4.178 1.746 6.499 1.112 7.233-1.973.157-.66.593-1.65.97-2.2.396-.579.791-2.198.939-3.846.141-1.565.522-3.484.848-4.264.326-.779.8-2.739 1.054-4.354.254-1.615.708-3.335 1.01-3.822.301-.487.548-.978.548-1.09 0-.633-4.365-2.137-9.2-3.169-.33-.071-2.351.002-4.492.162m6.859 1.634c5.15.882 5.841 2.182 4.025 7.571-.444 1.319-1.071 3.698-1.393 5.288-.562 2.777-1.453 6.013-2.323 8.437-.458 1.276.122 1.255-7.276.257-17.259-2.329-24.647 8.708-11 16.432.77.436 2.12 1.329 3 1.985.88.655 2.587 1.864 3.793 2.685 4.819 3.283 10.407 9.261 10.407 11.136 0 .293.364 1.232.809 2.085.444.853 1.186 3.514 1.647 5.912l.839 4.361-.907 5.6c-.619 3.818-1.135 5.855-1.623 6.4-.394.44-.887 1.561-1.096 2.491-.783 3.487-7.454 9.897-12.725 12.228-4.973 2.2-19.576 2.174-24.031-.042-.832-.414-3.004-1.275-4.826-1.913-2.732-.956-3.49-1.414-4.315-2.604-.55-.795-1.439-1.645-1.975-1.889-1.518-.691-1.645-4.668-.279-8.671.226-.66.831-2.537 1.346-4.171 1.285-4.08 1.771-4.632 3.336-3.789 8.485 4.571 12.06 5.653 16.385 4.962 3.408-.544 3.436-.56 4.772-2.661 2.755-4.334.397-9.808-6.201-14.397-5.942-4.132-11.956-9.622-11.956-10.913 0-.255-.336-1.131-.748-1.947-1.032-2.05-2.452-8.811-2.452-11.681 0-3.685 2.899-14.58 4.258-16.003.315-.33 1.53-1.87 2.699-3.422 4.304-5.714 11.236-10.678 16.443-11.775 1.1-.232 2.812-.688 3.803-1.012 1.587-.52 7.972-1.167 13.164-1.334.972-.031 2.952.146 4.4.394"/></g></svg>